<svg xmlns="http://www.w3.org/2000/svg" viewBox="0 0 512 512" role="img" aria-labelledby="title desc">
  <title id="title">YouTube style play badge</title>
  <desc id="desc">Red rounded rectangle with a white play triangle and subtle glow for the YT Ad Skipper README</desc>
  <defs>
    <linearGradient id="bg" x1="0" y1="0" x2="1" y2="1">
      <stop offset="0%" stop-color="#ff5f57"/>
      <stop offset="100%" stop-color="#d91c1c"/>
    </linearGradient>
    <linearGradient id="shine" x1="0" y1="0" x2="0" y2="1">
      <stop offset="0%" stop-color="#ffffff" stop-opacity="0.22"/>
      <stop offset="100%" stop-color="#ffffff" stop-opacity="0"/>
    </linearGradient>
    <filter id="shadow" x="-20%" y="-20%" width="140%" height="140%">
      <feDropShadow dx="0" dy="18" stdDeviation="20" flood-color="#7f0c0c" flood-opacity="0.28"/>
    </filter>
  </defs>
  <rect x="36" y="100" width="440" height="312" rx="92" fill="url(#bg)" filter="url(#shadow)"/>
  <path d="M36 192c0-50.2 40.8-92 92-92h256c50.2 0 92 41.8 92 92v44H36v-44Z" fill="url(#shine)"/>
  <path d="M222 193c-8.5-5-19 .7-19 10v106c0 9.3 10.5 15 19 10l92-53c8.7-5 8.7-18.5 0-23.5l-92-49.5Z" fill="#ffffff"/>
  <circle cx="256" cy="256" r="162" fill="none" stroke="#ffffff" stroke-opacity="0.12" stroke-width="10"/>
</svg>
